<svg xmlns="http://www.w3.org/2000/svg" viewBox="0 0 500 500"><rect width="500" height="500" fill="#4A154B"/><path d="M112.5 227c0 14.9 12.1 27 27 27s27-12.1 27-27-12.1-27-27-27h-27v27zm13.5 0h13.5c0 7.5-6 13.5-13.5 13.5v-13.5z" fill="#ECB32D"/><path d="M153 227c0 14.9 12.1 27 27 27s27-12.1 27-27v-67.5c0-14.9-12.1-27-27-27s-27 12.1-27 27 12.1 27 27 27h27V227h-27c-7.5 0-13.5-6-13.5-13.5S172.5 200 180 200h13.5v13.5H180c-3.7 0-6.7 3-6.8 6.7.1 3.7 3.1 6.8 6.8 6.8h13.5v-67.5c0-7.5-6-13.5-13.5-13.5s-13.5 6-13.5 13.5V227z" fill="#2EB67D"/><path d="M153 267.5c0 14.9 12.1 27 27 27s27-12.1 27-27-12.1-27-27-27h-27v27zm13.5 0h13.5c0 7.5-6 13.5-13.5 13.5v-13.5z" fill="#ECB32D"/><path d="M193.5 267.5c0 14.9 12.1 27 27 27s27-12.1 27-27-12.1-27-27-27h-27v27zm13.5 0h13.5c0 7.5-6 13.5-13.5 13.5v-13.5z" fill="#E01E5A"/><path d="M234 227c0 14.9 12.1 27 27 27s27-12.1 27-27-12.1-27-27-27-27 12.1-27 27zm13.5 0c0-7.5 6-13.5 13.5-13.5s13.5 6 13.5 13.5-6 13.5-13.5 13.5-13.5-6-13.5-13.5z" fill="#ECB32D"/><path d="M274.5 227c0 14.9 12.1 27 27 27s27-12.1 27-27v-67.5c0-14.9-12.1-27-27-27s-27 12.1-27 27v67.5zm13.5 0v-67.5c0-7.5 6-13.5 13.5-13.5s13.5 6 13.5 13.5V227c0 7.5-6 13.5-13.5 13.5s-13.5-6-13.5-13.5z" fill="#36C5F0"/><path d="M274.5 267.5c0 14.9 12.1 27 27 27s27-12.1 27-27-12.1-27-27-27-27 12.1-27 27zm13.5 0c0-7.5 6-13.5 13.5-13.5s13.5 6 13.5 13.5-6 13.5-13.5 13.5-13.5-6-13.5-13.5z" fill="#2EB67D"/><path d="M315 267.5c0 14.9 12.1 27 27 27s27-12.1 27-27-12.1-27-27-27-27 12.1-27 27zm13.5 0c0-7.5 6-13.5 13.5-13.5s13.5 6 13.5 13.5-6 13.5-13.5 13.5-13.5-6-13.5-13.5z" fill="#E01E5A"/><path d="M315 308c0 14.9 12.1 27 27 27s27-12.1 27-27v-13.5h-27c-14.9 0-27 12.1-27 27zm13.5 0c0-7.5 6-13.5 13.5-13.5h13.5V308c0 7.5-6 13.5-13.5 13.5s-13.5-6-13.5-13.5z" fill="#36C5F0"/></svg>
